<?xml version="1.0" encoding="iso-8859-1"?>
<!-- Generator: Adobe Illustrator 21.0.2, SVG Export Plug-In . SVG Version: 6.00 Build 0)  -->
<svg version="1.1" xmlns="http://www.w3.org/2000/svg" xmlns:xlink="http://www.w3.org/1999/xlink" x="0px" y="0px"
	 viewBox="0 0 89.736 136.032" style="enable-background:new 0 0 89.736 136.032;" xml:space="preserve">
<g id="Danefae">
	<g>
		<path d="M64.532,50.202c0.777,0,1.411,0.632,1.411,1.413c0,0.777-0.634,1.404-1.411,1.404c-0.777,0-1.414-0.626-1.414-1.404
			C63.118,50.834,63.755,50.202,64.532,50.202z M58.973,53.685c2.595,0.661,11.653,2.97,11.641,2.963
			c2.648,0.681,4.917,1.632,6.827,2.891c-0.602-3.192-1.243-6.339-1.908-9.426c-5.151-0.645-11.319-1.091-17.883-1.332
			C58.267,50.685,58.461,51.527,58.973,53.685z"/>
		<path d="M24.977,50.022c0.775,0,1.41,0.631,1.41,1.416c0,0.779-0.635,1.411-1.41,1.411c-0.78,0-1.412-0.632-1.412-1.411
			C23.565,50.653,24.197,50.022,24.977,50.022z M31.353,53.589c0.212-1.262,0.666-2.898,1.578-4.784
			c-6.628,0.255-12.905,0.708-18.209,1.363c-0.765,3.125-1.497,6.303-2.202,9.522c1.963-1.157,4.252-2.135,6.907-3.078
			C19.427,56.612,29.032,54.169,31.353,53.589z"/>
		<path d="M49.847,119.753c3.859-15.221,6.066-32.143,6.322-35.163c-0.219,0.038-0.785,0.058-1.002,0.092
			C54.957,86.781,51.757,107.907,49.847,119.753z"/>
		<path d="M14.395,81.107c0.402,1.944,7.314,29.571,24.061,50.343c-14.815-20.048-21.952-47.36-23.093-51.721
			C14.993,80.161,14.672,80.622,14.395,81.107z"/>
		<path d="M25.163,82.088c-1.008-0.397-1.95-0.812-2.806-1.246c1.042,13.168,9.174,33.056,14.891,44.409
			c-4.02-10.127-12.078-30.194-12.089-42.718C25.159,82.384,25.163,82.238,25.163,82.088z"/>
		<path d="M39.448,116.737c-2.37-13.583-4.296-31.393-4.343-31.905c-0.217-0.032-0.694-0.253-0.906-0.289
			C34.405,87.198,35.737,101.654,39.448,116.737z"/>
		<path d="M32.255,84.188c0.115,2.623,0.923,16.515,9.149,43.065c-6.562-24.569-7.615-39.49-7.86-42.743
			C33.168,84.433,32.622,84.265,32.255,84.188z"/>
		<path d="M28.117,83.094c-0.681-0.202-1.337-0.417-1.968-0.642c0.391,14.86,8.953,36.294,14.401,47.47
			C36.129,118.402,28.669,97.951,28.117,83.094z"/>
		<path d="M17.99,77.591c-0.821,0.457-1.122,0.924-1.758,1.578c-0.013,0.013,0.01-0.009,0,0c0.806,3.116,5.734,22.627,15.139,39.883
			C22.116,100.503,18.512,80.004,18.169,77.8C18.108,77.729,18.05,77.659,17.99,77.591z"/>
		<path d="M30.344,83.713c-0.415-0.105-0.821-0.211-1.224-0.329c0.405,9.513,3.611,22.295,7.088,32.685
			C30.954,96.624,30.427,85.711,30.344,83.713z"/>
		<path d="M21.374,80.304c-0.759-0.43-1.437-0.888-2.011-1.35c1.192,6.74,7.499,36.716,22.475,55.718
			c-6.44-10.9-18.84-35.428-20.49-54.366L21.374,80.304z"/>
		<path d="M8.215,95.429c0.598,5.445,4.395,24.427,22.055,35.736c-7.237-6.018-18.997-18.17-20.986-34.806
			C8.932,96.115,8.57,95.799,8.215,95.429z"/>
		<path d="M61.161,83.383c-0.408,0.111-0.79,0.308-1.208,0.402c-0.138,2.658-1.21,12.439-5.704,29.695
			C57.469,103.627,60.702,92.314,61.161,83.383z"/>
		<path d="M51.686,120.925C57.924,99.306,59,87.11,59.184,83.887c-0.238,0.052-0.194,0.166-0.439,0.221
			c-0.173,3.329-2.884,22.083-11.352,49.035C48.315,130.796,50.575,124.004,51.686,120.925z"/>
		<path d="M63.891,82.533c-0.635,0.223-1.3,0.434-1.98,0.634c-0.609,13.643-8.85,36.723-13.231,48.123
			C54.076,120.228,63.778,97.347,63.891,82.533z"/>
		<path d="M51.499,127.425c7.81-13.446,15.535-36.447,16.15-46.42c-0.846,0.408-1.773,0.806-2.764,1.174c0,0.006,0,0.016,0,0.021
			C64.885,92.686,59.47,110.355,51.499,127.425z"/>
		<path d="M10.352,96.941c2.182,15.899,13.461,27.558,20.475,33.405c-7.471-7.065-18.409-19.613-19.396-33.228
			c-0.064,0.004-0.125,0.009-0.189,0.004C10.962,97.119,10.664,97.051,10.352,96.941z"/>
		<path d="M54.826,134.781c6.94-5.718,22.466-20.666,24.734-37.319c-0.355,0.138-0.7,0.208-1.029,0.204
			C77.1,111.4,63.01,127.569,54.826,134.781z"/>
		<path d="M72.332,77.729c-0.175,0.215-0.381,0.428-0.609,0.638c-0.792,4.636-4.74,23.349-13.219,40.363
			c9.155-16.81,14.703-35.679,15.706-39.507c-0.017-0.015-0.03-0.037-0.047-0.055C73.621,78.625,73.007,78.14,72.332,77.729z"/>
		<path d="M74.609,79.663c-3.061,13.301-10.416,32.379-22.064,50.259c0.118-0.154,17.875-23.431,23.041-48.857
			C75.306,80.573,74.979,80.101,74.609,79.663z"/>
		<path d="M80.648,96.842c-2.302,16.402-13.778,28.512-20.968,34.471c17.522-10.991,21.148-29.103,22.028-35.457
			C81.365,96.245,81.009,96.572,80.648,96.842z"/>
		<path d="M13.171,95.086c0,0.031-0.006,0.055-0.012,0.087c0.71,4.729,3.864,17.291,17.947,31.664
			c-10.026-12.21-15.688-25.802-17.935-31.982C13.171,94.998,13.171,95.086,13.171,95.086z"/>
		<path d="M56.824,84.39c-1.141,14.231-5.27,31.879-9.593,47.543c8.373-27.616,10.53-44.197,10.732-47.772
			C57.582,84.241,57.205,84.313,56.824,84.39z"/>
		<path d="M38.353,85.134c-0.847-0.085-1.684-0.194-2.505-0.317c0.286,2.822,3.378,30.197,7.899,48.519
			C41.829,121.99,37.715,95.726,38.353,85.134z"/>
		<path d="M46.668,131.613c4.106-18.037,7.069-42.688,7.489-46.768c-0.802,0.111-1.619,0.22-2.444,0.307
			C51.767,96.047,48.571,120.386,46.668,131.613z"/>
		<path d="M70.55,79.314c-0.555,0.402-1.188,0.789-1.881,1.168c-0.699,15.482-12.984,41.79-20.069,53.707
			C62.191,116.275,69.143,87.03,70.55,79.314z"/>
		<path d="M76.622,96.182c-0.057-0.171-0.112-0.379-0.139-0.609c-3.145,8.362-11.316,26.785-26.172,39.931
			c0.331-0.08,0.669-0.163,1.003-0.246C69.692,119.1,75.089,103.002,76.622,96.182z"/>
		<path d="M77.163,97.107c-1.521,6.258-5.93,18.654-18.369,31.937c7.219-6.871,17.502-18.75,18.768-31.633
			C77.432,97.337,77.298,97.239,77.163,97.107z"/>
		<path d="M13.166,91.801c1.328,4.142,9.654,28.239,28.023,43.996c0.149,0.036,0.04,0.105,0.194,0.138
			c-5.293-5.916-23.371-27.491-28.223-46.736C13.16,90.031,13.16,90.946,13.166,91.801z"/>
		<path d="M12.441,96.749c-0.015,0.01-0.023,0.019-0.042,0.032c1.137,18.302,20.954,34.797,25.184,38.124
			c0.429,0.118,0.854,0.234,1.279,0.334C18.948,118.953,13.78,103.512,12.441,96.749z"/>
		<path d="M13.207,84.83l0.087-0.013c1.361,9.452,6.401,20.95,17.352,36.972C19.534,103.029,14.702,86.8,13.711,82.597
			C13.46,83.305,13.29,84.056,13.207,84.83z"/>
		<path d="M7.699,94.816c-0.093-0.143-0.791-1.049-0.881-1.198c0.711,14.127,9.833,31.335,19.616,36.366
			c0.674,0.453,1.35,0.866,2.028,1.25C9.067,116.314,7.786,96.578,7.699,94.816z"/>
		<path d="M39.045,123.155c1.14,3.093,2.481,6.888,3.365,9.086c-9.497-29.518-10.744-45.817-10.844-48.236
			c-0.243-0.054-0.483-0.108-0.723-0.168C30.968,86.4,31.924,99.209,39.045,123.155z"/>
		<path d="M50.72,85.252c-0.47,0.042-0.954,0.078-1.44,0.112l-2.949,44.256C48.272,117.854,50.978,95.335,50.72,85.252z"/>
		<path d="M61.241,118.085c7.971-10.225,14.166-24.554,15.482-33.455c-0.082-0.713-0.24-1.398-0.463-2.053
			C75.232,86.916,70.581,102.223,61.241,118.085z"/>
		<path d="M46.588,85.718c-0.157,0-0.802,0-0.967,0c0.008,0.203,0.018,25.207,0.141,30.616
			C45.904,111.728,46.584,87.507,46.588,85.718z"/>
		<path d="M39.335,85.236c-0.569,9.66,3.18,38.03,5.142,49.925c0,0-4.256-45.965-3.738-49.814
			C39.978,85.183,39.798,85.283,39.335,85.236z"/>
		<path d="M43.81,115.286c-0.447-12.383-0.902-26.033-0.882-29.814c-0.56-0.025-1.11-0.055-1.662-0.085l2.883,40.518
			C44.044,122.327,43.831,117.882,43.81,115.286z"/>
		<path d="M45.129,85.612c-0.155-0.004-1.613-0.044-1.613-0.044c0,1.312,1.62,46.05,1.69,48.011
			C45.284,131.465,45.113,86.24,45.129,85.612z"/>
		<path d="M45.778,127.401l2.831-41.779c-0.331-0.065-0.906,0.081-1.458,0.096c-0.011,4.189-0.48,17.098-0.913,29.087
			C46.232,117.165,45.876,122.84,45.778,127.401z"/>
		<path d="M76.537,92.5c0.028-0.85,0.065-1.818,0.104-2.742c-3.434,12.585-12.417,26.032-19.615,35.379
			c-2.652,3.728-5.638,7.403-8.987,10.895c0.08-0.017,0.163-0.037,0.246-0.06l-0.013-0.006C65.851,121.22,74.415,98.744,76.537,92.5
			z"/>
		<path d="M10.033,63.392c-0.022,0.017-0.038,0.034-0.057,0.051c0,0.013-0.009,0.019-0.009,0.032
			C9.992,63.446,10.012,63.423,10.033,63.392z"/>
		<path d="M20.897,57.767c-0.066,0.021-0.128,0.028-0.187,0.047c0.058-0.004,0.109-0.004,0.173-0.008
			C20.888,57.796,20.891,57.788,20.897,57.767z"/>
		<path d="M78.211,96.052c0.034,0.034,0.063,0.062,0.096,0.08c0.226,0.122,0.641,0.034,1.101-0.24c0.96-0.58,2.37-2.148,3.423-4.931
			C81.639,92.748,80.012,94.811,78.211,96.052z"/>
		<path d="M17.626,58.884c-0.085,0.036-0.163,0.068-0.242,0.102c0.076-0.023,0.15-0.043,0.224-0.058
			C17.61,58.911,17.619,58.905,17.626,58.884z"/>
		<path d="M11.972,62.19c0.035-0.145,0.063-0.286,0.095-0.432l0,0c-0.039,0.136-0.079,0.287-0.121,0.466
			C11.958,62.217,11.97,62.204,11.972,62.19z"/>
		<path d="M83.156,86.338c-1.278,1.741-2.66,3.559-5.039,5.906l-0.113,0.554c0,0.062,0.009,0.308,0.005,0.368
			c4.822-4.389,6.133-7.686,6.339-8.128c0.072-0.153-0.115-0.845-0.108-0.868C84.169,84.298,83.752,85.524,83.156,86.338z"/>
		<path d="M6.676,88.687c-0.225-0.338-0.424-0.657-0.613-0.974c0.044,0.215,0.1,0.422,0.148,0.627
			c0.137,0.254,0.301,0.533,0.483,0.838C7.763,91,9.572,93.66,11.679,95.105c0.008-0.013,0.008-0.019,0.008-0.034v-0.905
			C9.446,92.379,7.817,90.41,6.676,88.687z"/>
		<path d="M83.099,88.744c-1.173,1.746-2.845,3.749-5.146,5.557c-0.023,0.423-0.026,0.686-0.026,0.686
			c0,0.229,0.026,0.438,0.07,0.612c2.044-1.434,3.895-4.037,5.072-5.939c0.13-0.204,0.253-0.408,0.366-0.602
			c0.113-0.426,0.214-0.878,0.312-1.347C83.549,88.044,83.333,88.386,83.099,88.744z"/>
		<path d="M84.228,80.103c-0.058,0.209-0.123,0.421-0.189,0.627c-0.2,0.658-0.452,1.339-0.758,2.034
			c-1.005,2.294-2.602,4.72-5.144,6.795c-0.025,0.606-0.052,1.244-0.073,1.858c2.665-2.759,4.243-5.191,5.172-7.145
			c0.35-0.736,0.61-1.404,0.799-1.99c0.085-0.261,0.159-0.518,0.213-0.747c0-0.017,0-0.029,0-0.045
			C84.248,81.49,84.237,80.912,84.228,80.103z"/>
		<path d="M84.183,77.874c-0.068,0.248-0.144,0.502-0.221,0.761c-0.184,0.599-0.413,1.201-0.667,1.81
			c-1.007,2.384-2.587,4.79-5.07,6.793c-0.014,0.451-0.04,1.021-0.059,1.645c2.705-2.311,4.254-5.062,5.139-7.504
			c0.295-0.823,0.516-1.606,0.681-2.331c0.078-0.343,0.149-0.668,0.199-0.98C84.185,78.001,84.183,77.933,84.183,77.874z"/>
		<path d="M83.088,69.82c0.011,0.766-0.008,1.602-0.06,2.473c-0.046,0.818-0.119,1.659-0.241,2.525
			c-0.506,3.689-1.746,7.709-4.517,10.662c0.003,0.106,0.006,0.21,0.006,0.312c0,0.036-0.003,0.072-0.003,0.104
			c2.676-2.415,4.118-5.344,4.886-8.035c0.216-0.759,0.382-1.506,0.503-2.211c0.133-0.751,0.209-1.455,0.257-2.098
			C83.711,72.213,83.435,70.967,83.088,69.82z"/>
		<path d="M82.337,67.923c-0.334-0.694-0.738-1.768-1.148-2.385c0.612,3.507,0.302,7.282,0.302,7.282
			c-0.224,3.505-1.306,7.484-3.472,10.553c0.057,0.242,0.098,0.895,0.132,1.138C83.303,77.667,82.395,68.535,82.337,67.923z"/>
		<path d="M7.028,74.881c-0.127-0.881-0.2-1.746-0.253-2.562c-0.049-0.87-0.066-1.699-0.062-2.463
			c0.004-0.542,0.025-1.059,0.041-1.527c-0.395,1.027-0.703,2.15-0.934,3.378c-0.004,0.375,0.003,0.808,0.03,1.285
			c0.04,0.772,0.123,1.664,0.283,2.623c0.122,0.703,0.29,1.447,0.506,2.22c0.776,2.737,2.26,5.731,5.029,8.175v-0.394
			C8.821,82.667,7.547,78.606,7.028,74.881z"/>
		<path d="M8.34,69.777c0.01-0.817,0.042-1.593,0.095-2.296c0.053-0.728,0.12-1.378,0.198-1.958
			c0.029-0.243,0.059-0.481,0.093-0.696C8.45,65.18,8.189,65.55,7.952,65.931c-0.034,0.287-0.071,0.656-0.111,1.102
			c-0.042,0.598-0.087,1.321-0.104,2.138c-0.015,0.746-0.015,1.57,0.021,2.446c0.172,4.005,1.056,9.086,4.02,12.643
			c0.022-0.107,0.037-0.215,0.052-0.329C8.963,79.272,8.298,73.907,8.34,69.777z"/>
		<path d="M11.669,87.305c-2.554-2.036-4.167-4.493-5.184-6.928c-0.253-0.604-0.476-1.216-0.661-1.816
			c-0.112-0.36-0.205-0.721-0.297-1.07c0.066,0.442,0.152,0.936,0.273,1.466c0.157,0.719,0.376,1.506,0.669,2.328
			c0.885,2.478,2.444,5.273,5.207,7.63L11.669,87.305z"/>
		<path d="M11.676,89.563c-2.579-2.099-4.188-4.576-5.19-6.895c-0.303-0.7-0.546-1.382-0.749-2.034
			c-0.104-0.349-0.199-0.671-0.284-0.998c0.022,1.093,0.035,1.953,0.035,1.963c-0.004,0.167-0.004,0.343-0.004,0.515v0.072
			c0.076,0.251,0.163,0.512,0.269,0.787c0.206,0.563,0.468,1.164,0.8,1.825c0.981,1.933,2.564,4.277,5.128,6.907L11.676,89.563z"/>
		<path d="M6.59,85.938C6.282,85.4,6.015,84.89,5.793,84.411c-0.096-0.204-0.183-0.401-0.262-0.59
			c0.017,0.256,0.034,0.511,0.054,0.758c0.067,0.155,0.14,0.325,0.226,0.51c0.203,0.446,0.467,0.98,0.8,1.576
			c1.004,1.779,2.621,4.1,5.07,6.212v-0.476C9.27,89.989,7.653,87.806,6.59,85.938z"/>
		<path d="M14.147,71.019c0.177-4.805,1.334-8.647,2.209-10.913c0.118-0.306,0.232-0.581,0.334-0.83
			c-0.212,0.099-0.42,0.188-0.629,0.283c-0.081,0.196-0.197,0.47-0.33,0.823c-0.714,1.868-1.942,5.814-1.944,10.633
			c0,0.244,0.022,1.237,0.038,1.487c0.078,1.447,0.271,2.959,0.626,4.507c-0.221-1.562-0.318-3.067-0.329-4.499
			C14.121,72.258,14.135,71.268,14.147,71.019z"/>
		<path d="M78.9,70.915c-0.124-3.155-0.675-6.033-1.075-7.815c-0.133-0.562-0.247-1.015-0.333-1.331
			c-0.078-0.272-0.128-0.448-0.146-0.505c-0.268-0.196-0.543-0.385-0.827-0.573c0.026,0.102,0.063,0.211,0.095,0.329
			c0.095,0.336,0.208,0.739,0.321,1.194c0.519,2.042,1.155,5.221,1.223,8.722c0.009,0.245,0,1.24-0.008,1.491
			c-0.073,2.517-0.492,5.135-1.48,7.56c0.183,0.296,0.351,0.598,0.502,0.911c1.284-2.521,1.733-5.567,1.751-8.498
			C78.923,72.153,78.906,71.158,78.9,70.915z"/>
		<path d="M18.665,58.62c-0.035,0.051-0.064,0.104-0.096,0.176c-0.12,0.228-0.262,0.508-0.413,0.834
			c-0.981,2.087-2.535,6.167-2.756,11.425c-0.005,0.241-0.019,1.234-0.017,1.483c0.012,1.51,0.142,3.102,0.428,4.759
			c0.135-0.089,0.265-0.181,0.408-0.272c-0.186-1.5-0.224-3.002-0.163-4.474c0.012-0.245,0.073-1.236,0.098-1.485
			c0.414-4.81,1.796-9.139,2.712-11.56c0.112-0.304,0.219-0.57,0.31-0.806c0.047-0.105,0.085-0.204,0.117-0.3
			C19.076,58.477,18.869,58.547,18.665,58.62z"/>
		<path d="M14.909,71.037c0.184-5.046,1.447-9.034,2.34-11.251c0.13-0.329,0.248-0.612,0.36-0.858
			c-0.074,0.015-0.148,0.036-0.224,0.058c-0.011,0.002-0.019,0.008-0.034,0.009c-0.111,0.245-0.24,0.543-0.377,0.879
			c-0.872,2.154-2.149,6.114-2.333,11.156c-0.009,0.248-0.022,1.242-0.022,1.484c0.014,1.694,0.151,3.485,0.473,5.359
			c0.075-0.073,0.151-0.145,0.231-0.209c-0.293-1.793-0.423-3.51-0.437-5.142C14.886,72.275,14.9,71.286,14.909,71.037z"/>
		<path d="M74.043,60.298c-0.175-0.457-0.316-0.78-0.392-0.955c-0.043-0.089-0.065-0.138-0.067-0.144l0.009-0.007
			c-0.388-0.167-0.783-0.316-1.199-0.46c0.033,0.079,0.075,0.173,0.111,0.256c0.115,0.251,0.232,0.537,0.361,0.862
			c0.899,2.251,2.123,6.177,2.293,11.168c0.006,0.249,0.02,1.24,0.011,1.489c-0.011,1.623-0.147,3.348-0.44,5.157
			c0.129,0.113,0.25,0.231,0.366,0.343c0.525-1.899,0.793-3.759,0.887-5.522c0.013-0.257,0.039-1.246,0.039-1.487
			C76.013,66.117,74.745,62.134,74.043,60.298z"/>
		<path d="M74.158,71.043c-0.202-5.359-1.645-9.491-2.5-11.493c-0.141-0.333-0.264-0.607-0.364-0.818
			c-0.088-0.189-0.163-0.332-0.207-0.414c-0.161-0.047-0.322-0.089-0.477-0.136c0.05,0.148,0.11,0.306,0.178,0.496
			c0.078,0.232,0.17,0.489,0.27,0.772c0.799,2.387,2.063,6.75,2.434,11.609c0.019,0.245,0.075,1.234,0.084,1.484
			c0.057,1.372,0.029,2.763-0.111,4.152c0.129,0.087,0.257,0.164,0.379,0.253c0.222-1.538,0.319-3.013,0.332-4.412
			C74.175,72.279,74.162,71.286,74.158,71.043z"/>
		<path d="M15.146,59.952c-0.242,0.112-0.889,0.451-1.119,0.561c-0.091,0.242-0.21,0.602-0.348,1.055
			c-0.594,1.889-1.515,5.443-1.595,9.41c-0.007,0.245,0.007,1.236,0.007,1.485c0.09,2.327,0.258,4.936,1.232,7.176
			c0.097-0.122,0.838-0.609,0.943-0.724C11.381,70.065,15.029,60.228,15.146,59.952z"/>
		<path d="M77.668,70.95c-0.078-3.868-0.861-7.358-1.385-9.297c-0.134-0.47-0.244-0.838-0.327-1.11
			c-0.032-0.092-0.057-0.174-0.081-0.245c-0.316-0.174-0.635-0.349-0.974-0.517c0.023,0.06,0.041,0.113,0.069,0.169
			c0.11,0.3,0.238,0.646,0.373,1.051c0.727,2.166,1.653,5.743,1.666,9.966c0,0.245-0.024,1.242-0.036,1.491
			c-0.1,2.04-0.429,4.203-1.091,6.413c0.16,0.198,0.315,0.406,0.458,0.615c0.87-2.268,1.239-4.697,1.313-7.046
			C77.663,72.186,77.671,71.198,77.668,70.95z"/>
		<path d="M80.184,64.009c-0.161-0.207-0.327-0.409-0.497-0.607c-0.299-0.338-0.97-1.035-1.3-1.342
			c0.054,0.286,1.392,3.2,1.212,9.969c-0.089,3.34-0.508,6.342-2.08,9.54c0.07,0.203,0.273,0.896,0.331,1.102
			c1.825-3.363,2.56-7.059,2.774-10.334C80.94,68.75,80.251,64.387,80.184,64.009z"/>
		<path d="M10.113,72.39c0,0,0.107-5.025,0.759-7.692c0.154-0.632,0.254-1.211,0.363-1.704c0.072-0.287,0.132-0.546,0.194-0.777
			c-0.094,0.066-0.186,0.138-0.273,0.209c-0.321,0.253-0.63,0.513-0.925,0.777c-0.063,0.065-0.132,0.127-0.198,0.189
			c-0.022,0.03-0.042,0.053-0.066,0.083c-0.059,0.302-0.161,0.861-0.272,1.632c-0.06,0.466-0.128,1.004-0.179,1.6
			c-0.015,0.115-0.211,3.08-0.084,5.663c0.159,3.223,0.941,6.862,2.731,10.162c0.064-0.2,0.128-0.398,0.202-0.592
			C10.693,79.149,10.135,75.689,10.113,72.39z"/>
		<path d="M11.386,72.43c-0.01-0.246-0.019-1.238-0.013-1.487c0.056-3.201,0.597-6.127,1.087-8.183
			c0.126-0.509,0.246-0.96,0.349-1.351c0.019-0.055,0.036-0.114,0.055-0.17c-0.273,0.17-0.541,0.343-0.796,0.519
			c-0.032,0.146-0.061,0.287-0.095,0.432c-0.002,0.014-0.014,0.027-0.026,0.034c-0.104,0.412-0.226,0.921-0.358,1.521
			c-0.157,0.751-0.322,1.634-0.476,2.612c-0.215,1.377-0.383,2.935-0.448,4.565c-0.008,0.249-0.031,1.237-0.024,1.484
			c0.016,3.099,0.513,6.329,1.96,8.949c0.139-0.304,0.292-0.609,0.458-0.906C11.933,77.876,11.473,75.089,11.386,72.43z"/>
		<path d="M49.184,63.558c-0.288,0.024-0.581,0.053-0.88,0.078c-0.026,0.406-0.538,8.947-0.546,9.186
			c-0.04,0.774-0.068,1.468-0.088,2.024c0.518,0,1.03-0.004,1.552-0.004L49.184,63.558z"/>
		<path d="M46.234,63.759l0.399,11.092h0.465c0.016-0.56,0.835-10.709,0.872-11.138C47.398,63.736,46.82,63.753,46.234,63.759z"/>
		<path d="M18.321,75.935c0.109-0.041,0.531-0.382,0.635-0.419c0.529-7.09,2.204-15.112,2.572-17.631
			C18.127,69.267,18.289,74.974,18.321,75.935z M22.48,57.365c-0.025,0.104-0.045,0.232-0.081,0.385
			c-0.047,0.206-0.236,1.222-0.3,1.496c-1.084,4.658-1.992,13.144-2.01,13.387c-0.099,0.997-0.153,1.872-0.154,2.561
			c0.191-0.055,0.383-0.106,0.579-0.151c0.014-0.419,2.793-17.738,2.833-17.884C23.206,57.193,22.622,57.329,22.48,57.365z
			 M20.649,58.564c0.084-0.283,0.167-0.538,0.235-0.757c-0.064,0.004-0.115,0.004-0.173,0.008c-0.274,0.07-0.49,0.125-0.638,0.159
			c-0.049,0.134-0.132,0.338-0.234,0.621c-0.077,0.215-0.166,0.471-0.271,0.762c-0.778,2.242-2.126,6.724-2.516,11.732
			c-0.017,0.247-0.073,1.236-0.077,1.485c-0.052,1.27-0.03,2.559,0.085,3.844c0.066-0.038,0.132-0.079,0.204-0.119
			c0.132-0.079,0.273-0.144,0.41-0.215c-0.053-0.944,0.162-4.729,0.194-4.982c0.498-4.429,1.726-9.036,2.554-11.791
			C20.498,59.045,20.569,58.796,20.649,58.564z"/>
		<path d="M60.932,55.714c-0.161-0.039-0.313-0.079-0.464-0.117c0.086,0.516,2.424,16.884,2.441,17.128
			c0.068,0.733,0.12,1.385,0.141,1.932c0.481-0.007,0.965-0.026,1.446-0.032C62.912,63.229,61.005,56.067,60.932,55.714z"/>
		<path d="M58.694,57.822c-0.061,0.139-0.412,1.034-0.487,1.164c-0.06,0.102-0.117,0.198-0.181,0.3
			c0.33,1.534,2.232,14.815,2.255,15.372c0.062,0,0.91,0.041,0.967,0.034C61.247,74.692,58.715,57.959,58.694,57.822z"/>
		<path d="M59.752,55.478c-0.139-0.034-0.604-0.216-0.726-0.242c-0.005,0.306-0.026,0.621-0.054,0.938
			c0.074,0.407,0.159,0.858,0.247,1.345c0.045,0.242,0.089,0.491,0.136,0.747c0.044,0.248,0.091,0.493,0.138,0.749
			c0.515,2.848,2.29,15.671,2.29,15.671c0.091,0,0.506-0.015,0.596-0.016C62.358,74.126,59.835,55.99,59.752,55.478z"/>
		<path d="M51.091,63.251c-0.385,0.066-0.771,0.125-1.171,0.176l0.032,11.408h1.074C51.059,74.179,51.099,63.853,51.091,63.251z"/>
		<path d="M57.225,60.294c-0.194,0.194-0.4,0.384-0.628,0.565c0.215,1.011,2.108,13.289,2.119,13.88
			c0.306-0.002,0.604-0.01,0.901-0.01C59.597,74.173,58.289,64.958,57.225,60.294z"/>
		<path d="M46.097,72.83l-0.514-9.043c-0.226,0.002-0.449,0.002-0.664,0.002l0.507,9.041l0.116,2.021h0.655L46.097,72.83z"/>
		<path d="M38.085,63.159c-0.406-0.091-0.791-0.193-1.167-0.315c-0.029,0.683-0.423,11.405-0.423,11.968
			c0.544,0.008,1.093,0.015,1.639,0.015C38.109,74.173,38.073,63.791,38.085,63.159z"/>
		<path d="M33.78,61.245c-0.287,1.101-2.044,12.926-2.057,13.518c0.44,0.01,0.892,0.01,1.339,0.014
			c0.087-0.517,0.176-1.199,0.28-1.986c0.027-0.249,1.019-10.487,1.076-11.209C34.376,61.558,33.825,61.271,33.78,61.245z"/>
		<path d="M35.142,62.134c-0.054,0.902-0.954,12.115-1.023,12.655c0.623,0.008,1.252,0.013,1.878,0.013
			c0-0.56,0.406-11.458,0.436-12.121C35.971,62.519,35.545,62.34,35.142,62.134z"/>
		<path d="M41.842,63.708c-0.251-0.019-0.504-0.042-0.756-0.068l-0.031,11.203c0.243,0,0.481,0.004,0.72,0.004
			C41.775,74.847,41.821,64.414,41.842,63.708z"/>
		<path d="M43.432,71.341c-0.168-1.95-0.369-4.111-0.515-5.703c-0.081-0.8-0.147-1.457-0.187-1.879c-0.081,0-0.144,0-0.221-0.002
			c-0.032,0.677-0.07,1.308-0.088,1.895c-0.115,2.645-0.058,7.939-0.052,8.268l0.031,0.932c0.425,0,0.856,0,1.277,0
			C43.651,74.295,43.451,71.592,43.432,71.341z"/>
		<path d="M44.761,71.341l-0.238-5.74l-0.084-1.813c-0.358,0.002-0.707,0-1.055,0c0.047,0.423,0.106,1.062,0.19,1.823
			c0.161,1.606,0.78,8.683,0.807,9.239h0.531L44.761,71.341z"/>
		<path d="M63.302,56.387c-0.521-0.134-1.04-0.267-1.533-0.396c0.711,2.015,3.406,18.088,3.442,18.605c0.068,0,0.135,0,0.201,0
			c0.296-0.005,0.583,0,0.866,0.01C65.606,66.056,63.369,56.699,63.302,56.387z"/>
		<path d="M31.87,58.969c-0.112-0.23-0.206-0.453-0.282-0.668c-0.045,0.217-0.091,0.445-0.146,0.679
			c-0.604,2.806-2.491,12.821-2.63,15.731c0.246,0.016,0.54-0.011,0.682-0.011c0.023-0.555,2.04-13.929,2.405-15.667
			C31.888,59.008,31.876,58.988,31.87,58.969z M30.928,58.988c0.058-0.253,0.375-1.711,0.4-1.822
			c-0.034-0.249-0.047-0.485-0.047-0.699c-0.02-0.149-0.068-0.602-0.039-1.312c-0.294,0.076-0.53,0.146-0.935,0.245
			c-0.091,0.51-0.542,3.386-0.593,3.642c-1.272,6.463-2.009,13.457-2.029,13.693c-0.071,0.748-0.127,1.402-0.14,1.951
			c0.254,0.005,0.511,0.007,0.769,0.013C28.314,74.7,28.782,68.319,30.928,58.988z M25.251,57.652
			c0.082-0.394,0.152-0.747,0.218-1.036c-0.495,0.123-0.981,0.245-1.45,0.368c-0.044,0.185-0.095,0.428-0.15,0.715
			c-0.045,0.221-0.24,1.231-0.291,1.493c-0.898,4.628-1.802,11.59-1.84,11.979c-0.035,0.259-0.129,1.244-0.144,1.487
			c-0.072,0.847-0.109,1.597-0.099,2.176c0.328-0.053,0.666-0.099,1.012-0.135c0.01-0.555,1.875-12.745,2.439-15.554
			C25,58.884,25.201,57.88,25.251,57.652z M27.845,56.015c-0.428,0.109-0.861,0.214-1.303,0.327
			c-0.063,0.306-0.514,2.506-0.567,2.772c-0.54,2.661-1.286,6.509-1.82,9.87c-0.123,0.772-0.484,3.464-0.512,3.702
			c-0.076,0.75-0.129,1.414-0.147,1.944c0.282-0.006,0.56-0.014,0.851-0.014c0.03-0.517,2.246-12.859,2.827-15.536
			C27.229,58.824,27.75,56.418,27.845,56.015z M29.423,55.557c-0.23,0.059-0.474,0.119-0.728,0.187
			c-0.079,0.356-3.324,16.731-3.359,16.964c-0.113,0.755-0.19,1.412-0.227,1.931c0.568,0.009,1.132,0.021,1.703,0.034
			C26.834,74.126,29.337,56.073,29.423,55.557z"/>
		<path d="M38.734,63.366c-0.027,0.61,0.048,10.819,0.083,11.468c0.501,0,0.999,0.006,1.503,0.009l0.052-11.314
			C39.806,63.482,39.259,63.427,38.734,63.366z"/>
		<path d="M55.069,61.905c-0.134,0.042-0.266,0.076-0.411,0.112c0.055,0.887,0.144,2.461,0.255,4.242
			c0.119,1.634,0.506,6.297,0.533,6.541c0.087,0.793,0.169,1.477,0.257,2.002l0.411,0.019C56.03,74.283,55.122,62.766,55.069,61.905
			z"/>
		<path d="M33.057,60.687c-0.164-0.163-0.552-0.665-0.693-0.828c-0.333,1.605-1.979,12.663-2.006,12.903
			c-0.089,0.753-0.147,1.425-0.168,1.97c0.3,0.006,0.6,0.011,0.906,0.017c0.01-0.594,1.906-12.912,2.123-13.919
			C33.165,60.777,33.109,60.735,33.057,60.687z"/>
		<path d="M53.954,62.268c-0.216,0.073-0.434,0.139-0.648,0.211c0.035,0.585,0.535,11.753,0.535,12.323
			c0.439-0.005,0.889-0.009,1.33-0.013C55.088,74.256,54.022,63.159,53.954,62.268z"/>
		<path d="M68.434,57.84c1.029,4.769,2.258,15.329,2.149,17.389c0.105,0.044,0.705,0.283,0.814,0.325
			C71.018,64.716,69.001,60.137,68.434,57.84z M70.514,59.394c-0.103-0.29-0.44-1.217-0.491-1.368
			c-0.167-0.037-0.409-0.098-0.717-0.178c-0.126-0.034-0.262-0.06-0.404-0.103c0.009,0.032,2.359,4.121,3.236,18.188
			c0.294,0.147,0.583,0.3,0.856,0.466C73.084,75.467,72.991,66.289,70.514,59.394z M67.736,57.607
			c-0.14-0.034-0.702-0.333-0.847-0.372c0.043,0.161,2.376,17.271,2.398,17.717c0.194,0.043,0.392,0.092,0.583,0.138
			C69.232,65.79,67.764,57.724,67.736,57.607z M66.272,57.108c-0.245-0.066-0.963-0.275-1.209-0.339
			c0.052,0.264,1.442,6.46,2.915,17.954c0.113,0.013,0.54,0.098,0.656,0.115C68.637,74.259,66.304,57.252,66.272,57.108z"/>
		<path d="M51.671,74.826c0.468-0.006,0.933-0.008,1.399-0.015c0-0.562-0.398-11.355-0.435-12.011
			c-0.293,0.085-0.602,0.168-0.919,0.242C51.732,63.653,51.7,74.172,51.671,74.826z"/>
		<path d="M56.05,61.481c-0.123,0.07-0.242,0.135-0.36,0.196c0.05,0.759,0.868,10.866,0.895,11.109
			c0.078,0.784,0.154,1.463,0.228,1.987c0.463,0,0.926-0.01,1.382-0.017C58.175,74.172,56.285,62.559,56.05,61.481z"/>
		<path d="M64.406,56.631c-0.154-0.04-0.305-0.072-0.455-0.111c0.071,0.313,3.08,17.563,3.09,18.11
			c0.149,0.009,0.299,0.026,0.442,0.038C65.673,60.668,64.469,56.917,64.406,56.631z"/>
		<path d="M57.521,54.221c-0.014-0.253-0.639-4.042-1.326-5.414c-6.977-0.217-14.542-0.295-21.565-0.067
			c-0.975,1.855-1.479,3.451-1.728,4.71c-0.054,0.265-2.993,9.083,12.498,8.843C59.433,62.598,57.539,54.468,57.521,54.221z"/>
		<path d="M41.463,22.397c-11.136,0.219-18.195,2.28-21.276,3.417c-0.002,0.142-0.008,0.278-0.024,0.425
			c-0.277,3.761-2.951,6.108-3.486,6.535l-0.151,0.12c0,0-0.121,0.023-0.252,0.056c-0.044,0.437-0.078,0.848-0.101,1.225
			c7.273-1.361,16.097-2.134,25.098-2.308L41.463,22.397z"/>
		<path d="M47.68,16.029c12.562,0.387,19.516,3,22.208,4.253c-1.31-3.097-2.92-5.922-4.749-8.208
			C61.234,7.041,55.137,1.153,47.408,0.036C47.345,2.978,47.494,9.566,47.68,16.029z"/>
		<path d="M41.902,0c-7.388,0.817-13.767,4.978-18.984,12.406c-1.757,2.439-3.06,5.22-4.033,8.009
			c3.398-1.368,11.275-3.977,22.701-4.378L41.902,0z"/>
		<path d="M72.731,32.654c-0.33-0.264-3.214-2.655-3.528-6.527c-0.01-0.09-0.01-0.173-0.012-0.257
			c-3.17-1.045-10.342-2.963-21.316-3.402c0.143,4.387,0.271,8.01,0.32,9.385c9.024,0.136,17.853,0.862,25.103,2.195
			c-0.03-0.402-0.071-0.804-0.116-1.21l-0.325-0.081L72.731,32.654z"/>
		<path d="M74.401,38.994c0-0.011,0-0.022-0.006-0.032C74.401,38.972,74.401,38.983,74.401,38.994L74.401,38.994z"/>
		<path d="M75.206,48.598c-0.104-0.458-0.205-0.917-0.307-1.372c0.026,0.455,0.049,0.898,0.074,1.344
			C75.048,48.583,75.128,48.592,75.206,48.598z"/>
		<path d="M60.167,39.076c-1.23,0-1.667,1.077-1.667,1.999c0,1.106,0.554,1.662,1.667,1.662c0.924,0,1.995-0.436,1.995-1.662
			C62.162,39.968,61.265,39.076,60.167,39.076z M45.161,38.385c-1.101,0-2.001,0.896-2.001,1.996c0,1.227,1.081,1.664,2.001,1.664
			c0.926,0,2.002-0.438,2.002-1.664C47.163,39.281,46.265,38.385,45.161,38.385z M61.527,43.997
			c-0.416,0.147-0.868,0.227-1.36,0.227c-0.641,0-1.203-0.14-1.667-0.399c-0.932-0.505-1.486-1.479-1.486-2.751
			c0-2.017,1.323-3.486,3.153-3.486c1.917,0,3.483,1.563,3.483,3.486C63.649,42.455,62.813,43.546,61.527,43.997z M45.721,43.491
			c-0.185,0.025-0.369,0.044-0.56,0.044c-0.196,0-0.381-0.019-0.564-0.044c-1.72-0.225-2.919-1.46-2.919-3.11
			c0-1.917,1.561-3.488,3.483-3.488c1.921,0,3.486,1.571,3.486,3.488C48.647,42.032,47.442,43.272,45.721,43.491z M32.759,43.693
			c-0.02,0.017-0.032,0.028-0.048,0.047c-0.59,0.559-1.447,0.832-2.555,0.819c-0.715-0.007-1.334-0.22-1.837-0.596
			c-0.81-0.602-1.313-1.632-1.313-2.889c0-2.017,1.331-3.486,3.152-3.486c1.927,0,3.485,1.563,3.485,3.486
			C33.642,42.251,33.354,43.11,32.759,43.693z M75.777,47.996c-0.052-0.338-0.117-0.762-0.193-1.249
			c-0.054-0.358-0.111-0.737-0.175-1.145c-0.007-0.042-0.008-0.091-0.019-0.138c-0.076,0.008-0.148,0.009-0.23,0.009
			c-0.123,0-0.246-0.001-0.364-0.015c-0.278-0.022-0.54-0.072-0.786-0.144c-1.403-0.421-2.335-1.591-2.335-3.088
			c0-0.925,0.351-1.771,0.98-2.367c0.285-0.275,0.617-0.487,0.979-0.631c0.24-0.103,0.496-0.174,0.767-0.215
			c0-0.011,0-0.022-0.006-0.032c-0.256-1.694-0.443-2.929-0.445-2.959c-0.014-0.249-0.216-0.472-0.347-0.494
			c-0.068-0.011-0.14-0.03-0.202-0.042c-16.273-3.149-40.832-3.099-57.245,0.121c-0.022,0.005-0.048,0.013-0.075,0.029
			c-0.13,0.079-0.261,0.281-0.277,0.533c0,0-0.117,1.013-0.298,2.464c0.151,0.014,0.296,0.036,0.443,0.064
			c0.578,0.123,1.116,0.413,1.571,0.849c0.712,0.691,1.12,1.667,1.12,2.681c0,1.203-0.578,2.267-1.459,2.924
			c-0.452,0.33-0.977,0.553-1.547,0.638c-0.162,0.016-0.318,0.032-0.476,0.032c-0.109,0-0.205-0.013-0.299-0.017
			c-0.08-0.01-0.154-0.016-0.223-0.031c-0.223,1.795-0.383,3.113-0.383,3.091v0.017c0,0.092,0.019,0.145,0.019,0.163
			c0,0.004,0,0.009,0,0.009c0.005,0,0.022-0.005,0.037-0.005c0.142-0.021,0.293-0.036,0.436-0.055
			c0.115-0.016,0.238-0.03,0.359-0.045c5.45-0.67,11.868-1.136,18.626-1.379c14.13-0.458,22.872-0.027,23.162-0.013
			c6.614,0.23,18.211,0.89,18.315,1.363c0.172,0.029,0.345,0.045,0.514,0.069c0.046,0.006,0.095,0.013,0.14,0.017
			c0,0,0.034-0.156,0.039-0.181C75.889,48.77,75.853,48.471,75.777,47.996z M73.662,40.898c-0.325,0.304-0.506,0.725-0.506,1.212
			c0,0.657,0.314,1.089,0.745,1.349c0.242,0.141,0.52,0.234,0.801,0.275c0.15,0.025,0.304,0.042,0.454,0.042h0.002
			c0.101,0,0.184-0.013,0.25-0.017c0.178-0.019,0.264-0.056,0.29-0.085c0.09-0.087,0.112-0.411,0.118-0.766V42.11
			c0-1.017-0.178-1.407-0.373-1.56c-0.082-0.063-0.166-0.085-0.243-0.095c-0.031-0.006-0.064-0.008-0.095-0.008
			c-0.163-0.018-0.316-0.007-0.471,0.008c-0.048,0.01-0.089,0.017-0.134,0.025c-0.291,0.057-0.548,0.179-0.762,0.355
			C73.711,40.861,73.688,40.88,73.662,40.898z M30.157,39.076c-1.23,0-1.666,1.077-1.666,1.999c0,0.917,0.445,1.99,1.674,1.998
			c0.728,0.01,1.253-0.136,1.55-0.43c0.294-0.3,0.449-0.804,0.449-1.568C32.163,39.968,31.263,39.076,30.157,39.076z M14.815,44.08
			c0.034,0.007,0.068,0.015,0.105,0.017c0.074,0.013,0.152,0.013,0.239,0.013c0.191,0,0.373-0.026,0.548-0.079
			c0.832-0.241,1.45-1.007,1.45-1.921c0-0.575-0.241-1.123-0.658-1.514c-0.181-0.179-0.396-0.308-0.616-0.39
			c-0.18-0.067-0.373-0.096-0.565-0.1c-0.038,0-0.077-0.006-0.117,0.004c-0.031,0-0.063,0.007-0.102,0.015
			c-0.238,0.064-0.475,0.315-0.653,0.678c-0.032,0.068-0.062,0.132-0.087,0.208c-0.117,0.313-0.191,0.686-0.191,1.1
			c0,0.268,0.007,0.493,0.022,0.689c0.018,0.186,0.039,0.343,0.063,0.486C14.358,43.82,14.554,44.014,14.815,44.08z"/>
		<path d="M17.955,23.42c-0.153-0.16-0.323-0.281-0.473-0.366c-0.058-0.036-0.115-0.064-0.17-0.083
			c-0.136-0.058-0.264-0.102-0.361-0.129c-0.037,0.016-0.248,0.07-0.256,0.07c-0.047,0.007-0.093,0.017-0.139,0.026
			c-4.448,0.974-7.635,0.589-9.736-1.173c-1.965-1.645-2.93-4.493-2.93-8.679c0-0.427,0.014-0.88,0.035-1.336
			c0.067-2.395,0.627-4.632,1.568-6.647c-1.815,1.627-3.955,5.094-4.691,8.099C0.666,13.827-2.076,23.87,3.428,28.968
			c2.149,1.938,5.428,2.944,9.614,2.953c0.593-0.053,1.218-0.132,1.866-0.23c0.236-0.036,0.471-0.07,0.707-0.113
			c0,0,0.028-0.001,0.052-0.009c0.063-0.015,0.167-0.037,0.175-0.044c0.117-0.101,0.362-0.313,0.655-0.622
			c0.77-0.829,1.903-2.374,2.151-4.466c0.012-0.103,0.032-0.198,0.041-0.303c0.008-0.153,0.01-0.293,0.01-0.432
			C18.7,24.532,18.356,23.833,17.955,23.42z"/>
		<path d="M83.671,4.855c0.968,2.018,1.556,4.246,1.637,6.645c0.023,0.516,0.037,1.009,0.037,1.487c0,4.142-0.952,6.967-2.898,8.614
			c-2.112,1.781-5.322,2.17-9.822,1.179c0,0-0.171-0.039-0.224-0.054c-0.007,0-0.007,0-0.014,0
			c-0.174,0.036-0.419,0.124-0.669,0.292c-0.201,0.138-0.404,0.332-0.58,0.604c-0.015,0.024-0.029,0.04-0.039,0.066
			c-0.251,0.417-0.434,1.013-0.434,1.849c0,0.153,0,0.31,0.017,0.472c0.009,0.142,0.031,0.277,0.043,0.409
			c0.293,2.061,1.412,3.554,2.172,4.363c0.293,0.309,0.532,0.519,0.656,0.617c0.03,0.009,0.19,0.046,0.195,0.046l0,0
			c0.263,0.045,0.516,0.081,0.769,0.125c0.84,0.122,1.63,0.207,2.377,0.255c3.854-0.07,6.814-1.093,8.809-3.07
			c0.233-0.226,0.453-0.469,0.657-0.727C93.691,20.514,87.338,8.408,83.671,4.855z"/>
		<path d="M7.006,91.342c0,0,1.227,3.97,4.235,4.86l0.023-0.915C11.264,95.286,8.689,93.894,7.006,91.342z"/>
	</g>
</g>
<g id="Layer_1">
</g>
</svg>
