<?xml version="1.0" encoding="UTF-8" standalone="no"?>
<svg
   xmlns:dc="http://purl.org/dc/elements/1.1/"
   xmlns:cc="http://creativecommons.org/ns#"
   xmlns:rdf="http://www.w3.org/1999/02/22-rdf-syntax-ns#"
   xmlns:svg="http://www.w3.org/2000/svg"
   xmlns="http://www.w3.org/2000/svg"
   viewBox="0 0 666.66669 400"
   height="400"
   width="666.66669"
   xml:space="preserve"
   id="svg2"
   version="1.1"><metadata
     id="metadata8"><rdf:RDF><cc:Work
         rdf:about=""><dc:format>image/svg+xml</dc:format><dc:type
           rdf:resource="http://purl.org/dc/dcmitype/StillImage" /></cc:Work></rdf:RDF></metadata><defs
     id="defs6"><clipPath
       id="clipPath18"
       clipPathUnits="userSpaceOnUse"><path
         id="path16"
         d="M 0,300 H 500 V 0 H 0 Z" /></clipPath></defs><g
     transform="matrix(1.3333333,0,0,-1.3333333,0,400)"
     id="g10"><g
       id="g12"><g
         clip-path="url(#clipPath18)"
         id="g14"><g
           transform="translate(261.4004,93.6504)"
           id="g20"><path
             id="path22"
             style="fill:none;stroke:#000000;stroke-width:20;stroke-linecap:square;stroke-linejoin:miter;stroke-miterlimit:3;stroke-dasharray:none;stroke-opacity:1"
             d="m 0,0 -5.2,6 m -71.95,16.05 c -14.701,18.366 -22.05,38.9 -22.05,61.599 0,24 8.416,44.451 25.25,61.351 16.599,16.533 36.65,24.95 60.15,25.25 C 9.699,169.95 29.8,161.533 46.5,145 63.333,128.1 71.75,107.649 71.75,83.649 71.75,60.95 64.366,40.416 49.6,22.05 L 14,-16.101" /></g><g
           transform="translate(217.9502,144.1504)"
           id="g24"><path
             id="path26"
             style="fill:none;stroke:#000000;stroke-width:20;stroke-linecap:round;stroke-linejoin:round;stroke-miterlimit:3;stroke-dasharray:none;stroke-opacity:1"
             d="m 0,0 c -2.467,2.6 -4.184,5.449 -5.15,8.55 -1.1,3.133 -1.433,6.466 -1,10 0.366,7.133 3.267,13 8.7,17.599 5.333,4.5 11.45,6.417 18.35,5.75 4.133,-0.199 7.8,-1.349 11,-3.449 2.3,-1.234 4.367,-2.934 6.2,-5.1 L 65.6,1.55" /></g><g
           transform="translate(275.4004,77.5498)"
           id="g28"><path
             id="path30"
             style="fill:none;stroke:#000000;stroke-width:20;stroke-linecap:square;stroke-linejoin:round;stroke-miterlimit:3;stroke-dasharray:none;stroke-opacity:1"
             d="M 0,0 -14,16.101" /></g><g
           transform="translate(247.8501,43.2002)"
           id="g32"><path
             id="path34"
             style="fill:none;stroke:#000000;stroke-width:20;stroke-linecap:round;stroke-linejoin:miter;stroke-miterlimit:3;stroke-dasharray:none;stroke-opacity:1"
             d="M 0,0 -63.6,72.5 M 8.35,56.45 -29.9,100.95" /></g></g></g></g></svg>