<?xml version="1.0" standalone="no"?>
<!DOCTYPE svg PUBLIC "-//W3C//DTD SVG 20010904//EN"
 "http://www.w3.org/TR/2001/REC-SVG-20010904/DTD/svg10.dtd">
<svg version="1.0" xmlns="http://www.w3.org/2000/svg"
 width="1334.000000pt" height="1334.000000pt" viewBox="0 0 1334.000000 1334.000000"
 preserveAspectRatio="xMidYMid meet">
<metadata>
Created by potrace 1.11, written by Peter Selinger 2001-2013
</metadata>
<g transform="translate(0.000000,1334.000000) scale(0.100000,-0.100000)"
fill="#000000" stroke="none">
<path d="M6527 9974 c-1 -1 -40 -4 -87 -8 -170 -12 -251 -24 -420 -63 -110
-25 -116 -27 -140 -36 -8 -3 -53 -18 -100 -32 -47 -15 -89 -31 -95 -36 -5 -5
-15 -9 -23 -9 -41 0 -447 -219 -482 -260 -3 -3 -22 -16 -42 -29 -21 -12 -38
-27 -38 -32 0 -5 -6 -9 -14 -9 -8 0 -16 -3 -18 -8 -1 -4 -23 -23 -48 -42 -106
-83 -292 -267 -382 -380 -33 -41 -65 -76 -69 -78 -5 -2 -9 -10 -9 -17 0 -7 -3
-15 -7 -17 -5 -1 -26 -30 -48 -63 -22 -33 -43 -62 -46 -65 -3 -3 -14 -21 -24
-40 -10 -19 -21 -37 -24 -40 -3 -3 -16 -23 -28 -45 -11 -22 -30 -56 -40 -75
-75 -135 -181 -418 -209 -559 -3 -14 -7 -27 -9 -31 -2 -4 -7 -29 -11 -56 -3
-27 -8 -52 -10 -56 -3 -4 -7 -24 -9 -45 -2 -21 -7 -49 -10 -63 -7 -36 -18
-176 -19 -242 0 -32 -4 -58 -9 -58 -4 0 -6 -4 -3 -9 4 -5 8 -85 11 -178 3 -92
7 -181 10 -198 3 -16 7 -53 10 -81 3 -28 8 -62 10 -75 3 -13 8 -40 11 -59 47
-257 132 -509 251 -745 31 -60 61 -120 67 -132 6 -13 14 -23 19 -23 4 0 7 -5
7 -12 0 -13 61 -111 72 -116 5 -2 8 -10 8 -18 0 -8 5 -14 10 -14 6 0 10 -5 10
-11 0 -6 27 -47 60 -91 33 -43 60 -81 60 -84 0 -2 9 -14 19 -26 11 -13 29 -34
40 -47 12 -13 49 -59 83 -103 34 -43 68 -78 75 -78 7 0 13 -3 13 -7 0 -5 17
-26 38 -49 20 -22 60 -66 87 -98 28 -31 64 -72 80 -91 17 -18 50 -57 75 -85
25 -29 56 -65 70 -79 14 -14 50 -55 80 -91 30 -36 62 -72 70 -80 8 -8 42 -46
75 -85 33 -38 64 -75 70 -81 5 -6 35 -39 65 -74 30 -35 60 -68 65 -74 6 -6 41
-47 79 -91 38 -44 76 -87 85 -95 9 -8 29 -31 45 -50 26 -32 127 -148 151 -174
6 -6 35 -40 65 -75 30 -36 69 -79 85 -97 17 -18 50 -56 75 -85 158 -183 192
-217 249 -242 56 -25 149 -26 204 -2 44 18 127 91 127 111 0 8 4 14 9 14 10 0
22 47 27 110 4 48 -20 150 -36 150 -5 0 -11 8 -14 18 -4 9 -26 38 -49 64 -24
25 -70 77 -102 114 -33 37 -69 78 -80 90 -11 13 -40 46 -65 75 -25 29 -54 62
-65 73 -11 12 -47 53 -80 91 -78 91 -109 127 -170 195 -142 160 -175 198 -206
235 -54 64 -92 107 -126 142 -18 19 -33 36 -33 40 0 3 -8 13 -18 22 -9 9 -46
50 -82 91 -36 41 -67 77 -70 80 -3 3 -34 39 -70 80 -35 41 -77 87 -92 103 -16
15 -28 30 -28 33 0 4 -8 14 -18 23 -9 9 -44 47 -77 86 -33 38 -67 76 -75 85
-8 9 -33 37 -55 63 -22 26 -58 66 -79 90 -22 23 -70 83 -108 132 -37 50 -73
95 -78 102 -6 7 -10 16 -10 22 0 5 -4 11 -8 13 -13 5 -126 204 -172 303 -45
96 -51 111 -70 165 -7 19 -16 44 -21 55 -23 56 -85 292 -88 335 0 8 -5 38 -10
65 -28 154 -32 541 -6 665 3 14 8 42 11 64 7 50 12 74 18 94 3 9 7 28 10 42
11 55 15 70 27 92 7 13 11 23 9 23 -7 0 23 96 31 101 5 3 9 11 9 18 0 8 11 39
25 70 14 31 24 57 22 59 -1 1 8 17 21 35 13 17 20 32 17 32 -3 0 3 13 14 29
12 16 21 32 21 35 0 4 8 19 19 34 10 15 36 54 57 87 21 33 45 67 53 76 9 9 23
26 31 39 41 60 233 262 315 330 133 110 252 189 390 259 100 50 262 116 313
126 37 8 57 13 60 15 3 3 10 5 57 15 22 5 42 10 45 10 109 27 241 40 410 40
157 0 248 -7 377 -29 24 -4 46 -8 50 -8 5 0 18 -4 31 -9 13 -5 35 -11 51 -14
35 -6 207 -62 246 -80 160 -73 253 -122 328 -172 26 -18 52 -33 57 -33 4 0 10
-3 12 -8 2 -4 34 -32 73 -62 115 -89 193 -162 299 -280 96 -107 266 -354 266
-388 0 -7 3 -12 8 -12 4 0 13 -12 19 -27 56 -127 94 -218 97 -231 2 -10 6 -24
9 -32 5 -12 26 -87 32 -110 35 -154 37 -165 52 -285 10 -78 10 -441 0 -525
-10 -89 -16 -130 -24 -160 -9 -37 -10 -42 -16 -75 -20 -109 -92 -324 -153
-454 -19 -42 -35 -78 -34 -80 1 -2 -2 -7 -7 -10 -4 -3 -16 -22 -25 -41 -25
-50 -52 -94 -60 -98 -5 -2 -8 -8 -8 -14 0 -25 -173 -258 -255 -344 -16 -17
-84 -89 -150 -160 -66 -70 -150 -160 -186 -199 -37 -38 -79 -83 -94 -100 -124
-137 -230 -245 -240 -245 -6 0 -22 12 -35 28 -107 126 -136 160 -154 179 -28
29 -52 57 -111 128 -28 32 -57 66 -65 75 -8 9 -28 32 -45 51 -100 115 -154
177 -171 198 -10 13 -24 28 -29 35 -6 6 -53 61 -105 121 -52 61 -99 115 -105
121 -14 16 -51 58 -115 134 -30 36 -57 67 -60 70 -3 3 -30 34 -60 70 -30 36
-57 67 -60 70 -3 3 -30 34 -60 70 -30 36 -59 70 -65 76 -5 6 -30 34 -55 64
-25 29 -52 60 -61 69 -54 56 -87 152 -84 242 7 172 57 268 183 353 66 44 116
59 207 61 162 4 241 -38 381 -202 23 -26 50 -58 60 -69 11 -12 38 -44 60 -70
23 -27 57 -66 75 -86 19 -20 43 -47 53 -60 11 -13 33 -39 50 -58 17 -20 51
-60 76 -89 25 -29 59 -69 76 -87 18 -19 46 -52 64 -74 131 -160 203 -232 257
-256 101 -45 227 -21 299 58 61 67 69 86 69 178 0 113 -1 114 -170 310 -68 79
-150 173 -160 184 -5 6 -37 43 -70 81 -33 39 -62 72 -65 75 -5 5 -98 113 -141
164 -13 16 -35 41 -49 56 -14 15 -45 52 -69 81 -206 249 -424 373 -691 394
-34 2 -66 8 -72 11 -7 5 -8 2 -3 -6 5 -9 4 -11 -3 -6 -14 9 -92 14 -92 6 0 -3
-12 -5 -27 -4 -39 1 -186 -32 -222 -51 -17 -8 -34 -16 -38 -16 -15 -1 -108
-50 -163 -86 -79 -52 -228 -207 -276 -289 -95 -161 -132 -315 -129 -529 1 -77
5 -149 8 -160 4 -11 11 -38 16 -61 18 -70 98 -244 113 -244 4 0 8 -5 8 -11 0
-11 54 -79 117 -149 36 -40 54 -61 102 -120 19 -24 40 -48 46 -54 6 -6 53 -60
105 -121 52 -60 96 -112 100 -115 3 -3 30 -34 60 -70 30 -36 57 -67 60 -70 3
-3 48 -54 99 -115 52 -60 117 -137 146 -170 29 -33 65 -76 81 -95 16 -19 33
-40 39 -46 5 -7 30 -36 55 -65 25 -29 65 -76 90 -104 25 -28 66 -76 92 -106
25 -29 54 -63 65 -75 10 -12 43 -50 73 -85 30 -35 71 -82 91 -104 20 -22 34
-46 31 -54 -2 -7 15 -32 39 -54 112 -104 148 -137 145 -137 -2 0 15 -19 38
-43 22 -24 56 -62 75 -85 27 -34 40 -42 67 -42 19 0 34 3 34 8 0 17 281 289
327 315 8 5 11 16 8 26 -4 12 13 37 56 82 33 35 102 108 152 163 51 54 118
126 150 160 32 33 93 99 135 145 42 46 102 109 132 141 119 125 163 174 219
248 74 97 201 288 201 302 0 5 3 10 8 10 4 0 12 10 18 23 6 12 38 76 72 142
60 119 144 322 158 380 4 17 9 35 13 40 3 6 6 15 7 20 2 6 17 66 34 135 18 69
34 136 36 150 1 14 8 53 13 87 17 92 19 118 27 233 14 205 4 515 -20 625 -3
11 -8 43 -12 70 -3 28 -8 53 -10 56 -2 4 -6 24 -9 45 -3 22 -9 46 -12 54 -3 8
-9 31 -13 50 -14 59 -52 184 -60 195 -4 6 -10 23 -14 39 -13 53 -122 283 -173
364 -18 29 -33 54 -33 56 0 9 -84 131 -92 134 -4 2 -8 8 -8 13 0 9 -86 123
-127 169 -26 29 -98 108 -134 146 -48 51 -180 171 -249 226 -66 52 -198 148
-204 148 -3 0 -24 13 -48 29 -66 45 -305 171 -323 171 -3 0 -24 9 -48 19 -56
26 -286 101 -308 101 -10 0 -21 5 -24 10 -4 6 -10 8 -14 6 -4 -3 -36 2 -71 10
-35 8 -77 17 -94 19 -17 2 -42 7 -56 9 -25 5 -83 11 -197 22 -57 6 -262 11
-266 8z"/>
</g>
</svg>
